#!OML:ASF F:\VICON\USERDATA\INSTALL\rory3\rory3.ASF
:FULLY-SPECIFIED
:DEGREES
82
root 0.5102491796694545 17.846161793631698 26.179283876840678 -2.930724085699307 -3.556017062019182 0.7386862715267268
lfemur 3.557915467871439 -2.2556473280027793 -24.018617046243293
ltibia 29.42740417931841
lfoot -9.423759428408527 -1.8673472771768738
ltoes -12.986756029664289
rfemur -15.853777410935987 4.337879284006289 22.638698368918096
rtibia 50.0452169807386
rfoot -14.45474095796371 -5.914225048811886
rtoes 7.149829885927359
lowerback 9.633495456305205 -0.28239742171828097 -1.705212520717929
upperback 0.21043169550707624 -0.7055626185756219 0.8312373424803076
thorax -5.376590866885206 -0.26801665954229054 2.2733076955664817
lowerneck -16.47329744079686 -2.758176072337085 -1.6004182893661383
upperneck 21.906459853377225 -3.4219603973658157 0.23483975212170521
head 9.774405174230317 -1.7044289457810389 -0.05812440688151085
lclavicle -3.616362944687632e-16 5.803562888079055e-16
lhumerus -25.290448291393698 0.33845172962823167 80.15299778499387
lradius 26.51885038405504
lwrist 6.297981708706499
lhand -28.844031019218658 19.714530386720277
lfingers 7.12502
lthumb -2.5508400214252216 49.178925547972746
rclavicle -3.6163629433987486e-16 5.803562888944992e-16
rhumerus -27.457995770118693 -16.53030833505796 -79.55326695822325
rradius 33.29703145358596
rwrist 3.6846046091500937
rhand -17.835696679171015 20.954979438353988
rfingers 7.12502
rthumb 9.119212346406645 -7.879279582396958
83
root 0.5650717733641433 17.874128974911113 26.661680863297285 -2.5651998892660925 -3.3375958167311213 0.23301760570942376
lfemur 4.432383331440555 -2.615057698202265 -23.715149427773362
ltibia 29.584502836870094
lfoot -8.683695862017498 -2.4198281939963633
ltoes -15.394909117700607
rfemur -15.475103162350502 4.358469930086841 23.196116170430596
rtibia 47.24955681707393
rfoot -15.146981730141238 -5.9343285926616165
rtoes 5.794223212423638
lowerback 9.503187977299978 -0.5603940782824834 -1.3238777898474494
upperback 0.18400940772278304 -1.0258044577167849 0.9662140924428104
thorax -5.358776587533286 -0.44146103668646614 2.4706383726686503
lowerneck -16.46936529410318 -2.7584888696227456 -1.6595609671624107
upperneck 21.73770179760788 -3.4164645143304653 0.14817834515551492
head 9.683275865023695 -1.7086407579893117 -0.08594043479421526
lclavicle -3.6163629446533766e-16 5.803562888105003e-16
lhumerus -25.254552996936567 0.4428649922100991 80.31432988730829
lradius 25.844744836871207
lwrist 6.4103974800426045
lhand -28.818358613014777 20.27435498153567
lfingers 7.12502
lthumb -2.568374229638551 49.69780542702136
rclavicle -3.616362943502398e-16 5.803562888878043e-16
rhumerus -27.294861817894652 -16.53726424617083 -79.53560467808298
rradius 33.42427887609952
rwrist 4.034272523625018
rhand -17.795597465643585 21.113921878701216
rfingers 7.12502
rthumb 9.071403669014865 -7.8108454182439715
84
root 0.5932199875319796 17.899928885998087 27.200495122364863 -2.2994246016774436 -3.350005554433932 -0.3991889998168128
lfemur 4.982614299914003 -2.7843992260893264 -23.17955753029309
ltibia 30.223866945175875
lfoot -8.219981143129992 -2.948479586509514
ltoes -11.941411159826682
rfemur -14.836966184870173 4.54834402171797 23.924393072279553
rtibia 44.3134066365828
rfoot -16.013024377499626 -6.096512285002099
rtoes 4.556271168069101
lowerback 9.43406739909612 -0.7091843965238814 -0.8031396630042764
upperback 0.13045181234442962 -1.180155819650518 1.138534145399594
thorax -5.442808917403582 -0.5422568470418996 2.5977553996494
lowerneck -16.425452350442093 -2.75342398911091 -1.6989631996662058
upperneck 21.612368746550274 -3.4013511598601953 0.0612228463833715
head 9.609767462671801 -1.7083083533868972 -0.11407990518721683
lclavicle -3.616362944588722e-16 5.803562888148893e-16
lhumerus -26.16275265730386 0.009777529727893253 80.18742365595985
lradius 25.109419779482206
lwrist 6.590115332260107
lhand -28.78345859764212 20.726894913667646
lfingers 7.12502
lthumb -2.5389879589650692 50.25183944822655
rclavicle -3.616362943444381e-16 5.803562888917295e-16
rhumerus -27.130749247376606 -16.456689866927007 -79.4626393363267
rradius 33.39902664457704
rwrist 3.825305747398378
rhand -17.816447030385554 21.17018261322617
rfingers 7.12502
rthumb 9.187095773690679 -7.325743664078001
85
root 0.6366176482049883 17.913841806086136 28.328426413212597 -2.3797419753171187 -3.480256646743203 -0.5356569525828376
lfemur 5.979925990726807 -2.914431947417642 -22.952749960053435
ltibia 30.8285003044046
lfoot -7.772060912916755 -3.1452417500264707
ltoes -11.214901320530988
rfemur -14.299587190609358 4.624585273065144 24.193255620451716
rtibia 42.16546860204448
rfoot -17.05284572953029 -6.433812089524428
rtoes 4.301024553668443
lowerback 9.412312013067917 -0.7756949298430028 -0.524030194827821
upperback 0.13872800077808295 -1.2306600501186662 1.2730715353417064
thorax -5.321461834736888 -0.5700257730746374 2.7651724552766273
lowerneck -16.45146091781737 -2.7584272708864006 -1.7370405255908714
upperneck 21.694248106959247 -3.3942553864626523 -0.03629529655806463
head 9.630731457910358 -1.7110198102978513 -0.15393850775252393
lclavicle -3.6163629444655784e-16 5.80356288823326e-16
lhumerus -26.408087134510186 0.6583107795403569 80.28638187901379
lradius 24.410017026417513
lwrist 6.6926332441364
lhand -28.814977064483344 20.723974763095708
lfingers 7.12502
lthumb -2.5310119861048768 50.42521931243826
rclavicle -3.6163629434698545e-16 5.803562888904018e-16
rhumerus -27.05028668071986 -16.093594212617276 -79.07907524848748
rradius 33.346677645986716
rwrist 3.44900999827506
rhand -17.805184221864916 21.331083342838422
rfingers 7.12502
rthumb 9.15623486300658 -6.982039058729733
